<mxfile host="app.diagrams.net" modified="2021-09-20T03:59:36.818Z" agent="5.0 (Macintosh; Intel Mac OS X 10_15_7) AppleWebKit/537.36 (KHTML, like Gecko) Chrome/93.0.4577.82 Safari/537.36" etag="40HGHbLn76lDQ-Gg-DpR" version="15.2.9" type="github">
  <diagram id="R2lEEEUBdFMjLlhIrx00" name="Page-1">
    <mxGraphModel dx="788" dy="371" grid="1" gridSize="10" guides="1" tooltips="1" connect="1" arrows="1" fold="1" page="1" pageScale="1" pageWidth="850" pageHeight="1100" math="0" shadow="0" extFonts="Permanent Marker^https://fonts.googleapis.com/css?family=Permanent+Marker">
      <root>
        <mxCell id="0" />
        <mxCell id="1" parent="0" />
        <mxCell id="I-NT5KYFCOwSPCmxLnBK-3" value="Flights" style="shape=associativeEntity;whiteSpace=wrap;html=1;align=center;" vertex="1" parent="1">
          <mxGeometry x="500" y="230" width="140" height="60" as="geometry" />
        </mxCell>
        <mxCell id="I-NT5KYFCOwSPCmxLnBK-4" value="Passenger&lt;br&gt;" style="whiteSpace=wrap;html=1;align=center;" vertex="1" parent="1">
          <mxGeometry x="70" y="170" width="100" height="40" as="geometry" />
        </mxCell>
        <mxCell id="I-NT5KYFCOwSPCmxLnBK-41" style="edgeStyle=orthogonalEdgeStyle;rounded=0;orthogonalLoop=1;jettySize=auto;html=1;" edge="1" parent="1" source="I-NT5KYFCOwSPCmxLnBK-5" target="I-NT5KYFCOwSPCmxLnBK-25">
          <mxGeometry relative="1" as="geometry" />
        </mxCell>
        <mxCell id="I-NT5KYFCOwSPCmxLnBK-49" style="edgeStyle=orthogonalEdgeStyle;rounded=0;orthogonalLoop=1;jettySize=auto;html=1;entryX=0.288;entryY=0.853;entryDx=0;entryDy=0;entryPerimeter=0;" edge="1" parent="1" source="I-NT5KYFCOwSPCmxLnBK-5" target="I-NT5KYFCOwSPCmxLnBK-24">
          <mxGeometry relative="1" as="geometry" />
        </mxCell>
        <mxCell id="I-NT5KYFCOwSPCmxLnBK-5" value="Employees" style="whiteSpace=wrap;html=1;align=center;" vertex="1" parent="1">
          <mxGeometry x="100" y="540" width="100" height="40" as="geometry" />
        </mxCell>
        <mxCell id="I-NT5KYFCOwSPCmxLnBK-6" value="Phone #" style="ellipse;whiteSpace=wrap;html=1;align=center;" vertex="1" parent="1">
          <mxGeometry x="20" y="230" width="100" height="40" as="geometry" />
        </mxCell>
        <mxCell id="I-NT5KYFCOwSPCmxLnBK-7" value="Name" style="ellipse;whiteSpace=wrap;html=1;align=center;" vertex="1" parent="1">
          <mxGeometry x="50" y="80" width="100" height="40" as="geometry" />
        </mxCell>
        <mxCell id="I-NT5KYFCOwSPCmxLnBK-8" value="Meal" style="ellipse;whiteSpace=wrap;html=1;align=center;" vertex="1" parent="1">
          <mxGeometry x="150" y="230" width="100" height="40" as="geometry" />
        </mxCell>
        <mxCell id="I-NT5KYFCOwSPCmxLnBK-9" value="" style="endArrow=none;html=1;entryX=0;entryY=1;entryDx=0;entryDy=0;" edge="1" parent="1" target="I-NT5KYFCOwSPCmxLnBK-4">
          <mxGeometry width="50" height="50" relative="1" as="geometry">
            <mxPoint x="48" y="230" as="sourcePoint" />
            <mxPoint x="120" y="200" as="targetPoint" />
          </mxGeometry>
        </mxCell>
        <mxCell id="I-NT5KYFCOwSPCmxLnBK-13" value="" style="endArrow=none;html=1;exitX=0.4;exitY=-0.075;exitDx=0;exitDy=0;entryX=0.5;entryY=1;entryDx=0;entryDy=0;exitPerimeter=0;" edge="1" parent="1" source="I-NT5KYFCOwSPCmxLnBK-4" target="I-NT5KYFCOwSPCmxLnBK-7">
          <mxGeometry width="50" height="50" relative="1" as="geometry">
            <mxPoint x="90" y="200" as="sourcePoint" />
            <mxPoint x="140" y="150" as="targetPoint" />
          </mxGeometry>
        </mxCell>
        <mxCell id="I-NT5KYFCOwSPCmxLnBK-14" value="" style="endArrow=none;html=1;entryX=1;entryY=1;entryDx=0;entryDy=0;exitX=0.41;exitY=0.025;exitDx=0;exitDy=0;exitPerimeter=0;" edge="1" parent="1" source="I-NT5KYFCOwSPCmxLnBK-8" target="I-NT5KYFCOwSPCmxLnBK-4">
          <mxGeometry width="50" height="50" relative="1" as="geometry">
            <mxPoint x="150" y="350" as="sourcePoint" />
            <mxPoint x="200" y="300" as="targetPoint" />
          </mxGeometry>
        </mxCell>
        <mxCell id="I-NT5KYFCOwSPCmxLnBK-34" style="edgeStyle=orthogonalEdgeStyle;rounded=0;orthogonalLoop=1;jettySize=auto;html=1;entryX=0.062;entryY=0.029;entryDx=0;entryDy=0;entryPerimeter=0;" edge="1" parent="1" source="I-NT5KYFCOwSPCmxLnBK-16" target="I-NT5KYFCOwSPCmxLnBK-5">
          <mxGeometry relative="1" as="geometry" />
        </mxCell>
        <mxCell id="I-NT5KYFCOwSPCmxLnBK-16" value="Address" style="ellipse;shape=doubleEllipse;margin=3;whiteSpace=wrap;html=1;align=center;" vertex="1" parent="1">
          <mxGeometry x="30" y="460" width="100" height="40" as="geometry" />
        </mxCell>
        <mxCell id="I-NT5KYFCOwSPCmxLnBK-17" value="Address" style="ellipse;shape=doubleEllipse;margin=3;whiteSpace=wrap;html=1;align=center;" vertex="1" parent="1">
          <mxGeometry x="190" y="100" width="100" height="40" as="geometry" />
        </mxCell>
        <mxCell id="I-NT5KYFCOwSPCmxLnBK-18" value="" style="endArrow=none;html=1;exitX=1;exitY=0.5;exitDx=0;exitDy=0;entryX=0;entryY=0.5;entryDx=0;entryDy=0;" edge="1" parent="1" source="I-NT5KYFCOwSPCmxLnBK-4" target="I-NT5KYFCOwSPCmxLnBK-23">
          <mxGeometry width="50" height="50" relative="1" as="geometry">
            <mxPoint x="375" y="275" as="sourcePoint" />
            <mxPoint x="425" y="225" as="targetPoint" />
          </mxGeometry>
        </mxCell>
        <mxCell id="I-NT5KYFCOwSPCmxLnBK-19" value="" style="endArrow=none;html=1;exitX=1;exitY=0;exitDx=0;exitDy=0;" edge="1" parent="1" source="I-NT5KYFCOwSPCmxLnBK-4">
          <mxGeometry width="50" height="50" relative="1" as="geometry">
            <mxPoint x="160" y="180" as="sourcePoint" />
            <mxPoint x="210" y="130" as="targetPoint" />
          </mxGeometry>
        </mxCell>
        <mxCell id="I-NT5KYFCOwSPCmxLnBK-35" style="edgeStyle=orthogonalEdgeStyle;rounded=0;orthogonalLoop=1;jettySize=auto;html=1;" edge="1" parent="1" source="I-NT5KYFCOwSPCmxLnBK-20" target="I-NT5KYFCOwSPCmxLnBK-5">
          <mxGeometry relative="1" as="geometry" />
        </mxCell>
        <mxCell id="I-NT5KYFCOwSPCmxLnBK-20" value="Name" style="ellipse;whiteSpace=wrap;html=1;align=center;" vertex="1" parent="1">
          <mxGeometry x="190" y="470" width="100" height="40" as="geometry" />
        </mxCell>
        <mxCell id="I-NT5KYFCOwSPCmxLnBK-36" style="edgeStyle=orthogonalEdgeStyle;rounded=0;orthogonalLoop=1;jettySize=auto;html=1;entryX=0.328;entryY=1.029;entryDx=0;entryDy=0;entryPerimeter=0;" edge="1" parent="1" source="I-NT5KYFCOwSPCmxLnBK-21" target="I-NT5KYFCOwSPCmxLnBK-5">
          <mxGeometry relative="1" as="geometry" />
        </mxCell>
        <mxCell id="I-NT5KYFCOwSPCmxLnBK-21" value="Salary" style="ellipse;whiteSpace=wrap;html=1;align=center;" vertex="1" parent="1">
          <mxGeometry x="20" y="610" width="100" height="40" as="geometry" />
        </mxCell>
        <mxCell id="I-NT5KYFCOwSPCmxLnBK-23" value="Flying_on" style="shape=rhombus;perimeter=rhombusPerimeter;whiteSpace=wrap;html=1;align=center;" vertex="1" parent="1">
          <mxGeometry x="350" y="150" width="120" height="60" as="geometry" />
        </mxCell>
        <mxCell id="I-NT5KYFCOwSPCmxLnBK-50" style="edgeStyle=orthogonalEdgeStyle;rounded=0;orthogonalLoop=1;jettySize=auto;html=1;entryX=0;entryY=1;entryDx=0;entryDy=0;" edge="1" parent="1" source="I-NT5KYFCOwSPCmxLnBK-24" target="I-NT5KYFCOwSPCmxLnBK-3">
          <mxGeometry relative="1" as="geometry" />
        </mxCell>
        <mxCell id="I-NT5KYFCOwSPCmxLnBK-24" value="Working_on" style="shape=rhombus;perimeter=rhombusPerimeter;whiteSpace=wrap;html=1;align=center;" vertex="1" parent="1">
          <mxGeometry x="290" y="340" width="120" height="60" as="geometry" />
        </mxCell>
        <mxCell id="I-NT5KYFCOwSPCmxLnBK-48" style="edgeStyle=orthogonalEdgeStyle;rounded=0;orthogonalLoop=1;jettySize=auto;html=1;entryX=0.5;entryY=1;entryDx=0;entryDy=0;" edge="1" parent="1" source="I-NT5KYFCOwSPCmxLnBK-25" target="I-NT5KYFCOwSPCmxLnBK-3">
          <mxGeometry relative="1" as="geometry" />
        </mxCell>
        <mxCell id="I-NT5KYFCOwSPCmxLnBK-25" value="Pilots" style="shape=rhombus;perimeter=rhombusPerimeter;whiteSpace=wrap;html=1;align=center;" vertex="1" parent="1">
          <mxGeometry x="380" y="480" width="120" height="60" as="geometry" />
        </mxCell>
        <mxCell id="I-NT5KYFCOwSPCmxLnBK-26" value="" style="endArrow=none;html=1;entryX=1;entryY=0.5;entryDx=0;entryDy=0;exitX=0;exitY=0;exitDx=0;exitDy=0;" edge="1" parent="1" source="I-NT5KYFCOwSPCmxLnBK-3" target="I-NT5KYFCOwSPCmxLnBK-23">
          <mxGeometry width="50" height="50" relative="1" as="geometry">
            <mxPoint x="410" y="280" as="sourcePoint" />
            <mxPoint x="460" y="230" as="targetPoint" />
          </mxGeometry>
        </mxCell>
        <mxCell id="I-NT5KYFCOwSPCmxLnBK-40" style="edgeStyle=orthogonalEdgeStyle;rounded=0;orthogonalLoop=1;jettySize=auto;html=1;entryX=0.75;entryY=1;entryDx=0;entryDy=0;" edge="1" parent="1" source="I-NT5KYFCOwSPCmxLnBK-28" target="I-NT5KYFCOwSPCmxLnBK-5">
          <mxGeometry relative="1" as="geometry" />
        </mxCell>
        <mxCell id="I-NT5KYFCOwSPCmxLnBK-28" value="Employee Number" style="ellipse;whiteSpace=wrap;html=1;align=center;fontStyle=4;" vertex="1" parent="1">
          <mxGeometry x="150" y="620" width="100" height="40" as="geometry" />
        </mxCell>
        <mxCell id="I-NT5KYFCOwSPCmxLnBK-46" style="edgeStyle=orthogonalEdgeStyle;rounded=0;orthogonalLoop=1;jettySize=auto;html=1;" edge="1" parent="1" source="I-NT5KYFCOwSPCmxLnBK-44" target="I-NT5KYFCOwSPCmxLnBK-25">
          <mxGeometry relative="1" as="geometry" />
        </mxCell>
        <mxCell id="I-NT5KYFCOwSPCmxLnBK-44" value="Planes that can be flown" style="ellipse;whiteSpace=wrap;html=1;align=center;" vertex="1" parent="1">
          <mxGeometry x="340" y="560" width="100" height="40" as="geometry" />
        </mxCell>
        <mxCell id="I-NT5KYFCOwSPCmxLnBK-47" style="edgeStyle=orthogonalEdgeStyle;rounded=0;orthogonalLoop=1;jettySize=auto;html=1;" edge="1" parent="1" source="I-NT5KYFCOwSPCmxLnBK-45" target="I-NT5KYFCOwSPCmxLnBK-25">
          <mxGeometry relative="1" as="geometry" />
        </mxCell>
        <mxCell id="I-NT5KYFCOwSPCmxLnBK-45" value="License Date" style="ellipse;whiteSpace=wrap;html=1;align=center;" vertex="1" parent="1">
          <mxGeometry x="490" y="550" width="100" height="40" as="geometry" />
        </mxCell>
      </root>
    </mxGraphModel>
  </diagram>
</mxfile>
